<?xml version="1.0" ?><svg data-name="Layer 2" id="Layer_2" viewBox="0 0 32 32" xmlns="http://www.w3.org/2000/svg"><defs><style>.cls-1{fill:#1a1a1a;}</style></defs><title/><path class="cls-1" d="M16,2.5A13.5,13.5,0,1,0,29.5,16,13.52,13.52,0,0,0,16,2.5Zm0,26A12.5,12.5,0,1,1,28.5,16,12.52,12.52,0,0,1,16,28.5Z"/><path class="cls-1" d="M19,9.49a.5.5,0,0,0-.5.5V22a.5.5,0,0,0,.5.5.5.5,0,0,0,.5-.5V10A.5.5,0,0,0,19,9.49Z"/><path class="cls-1" d="M13,9.49a.5.5,0,0,0-.5.5V22a.5.5,0,0,0,.5.5.5.5,0,0,0,.5-.5V10A.5.5,0,0,0,13,9.49Z"/></svg>